<?xml version="1.0" encoding="UTF-8"?>
<svg width="1200pt" height="1200pt" version="1.1" viewBox="0 0 1200 1200" xmlns="http://www.w3.org/2000/svg">
 <path d="m1132.8 968.4-45.602-39.602-42-36c-15.602-14.398-37.199 2.3984-37.199 27.602v52.801c-1.1992 0-2.3984 0-4.8008-1.1992-75.602-10.801-81.602-87.602-81.602-96 0-19.199 3.6016-410.4-1.1992-627.6-1.1992-72-87.602-154.8-194.4-154.8-72 0-132 46.801-165.6 97.199-31.199-52.801-98.398-97.199-177.6-97.199-72 0-133.2 46.801-165.6 98.398-9.6016-18-22.801-34.801-38.398-48-31.199-27.602-72-43.199-102-38.398-13.195 1.2031-22.797 13.203-20.398 26.402 1.1992 13.199 13.199 22.801 26.398 20.398 14.398-2.3984 42 7.1992 64.801 27.602 19.199 16.801 43.199 48 43.199 98.398v598.8c0 13.199 10.801 24 24 24s24-10.801 24-24l0.003906-598.8v-6-1.1992c0-44.398 61.199-128.4 145.2-128.4 86.398 0 146.4 64.801 146.4 108 6 219.6 1.1992 622.8 1.1992 626.4 0 13.199 10.801 24 24 24 13.199 0 24-10.801 24-24 0-3.6016 3.6016-355.2 0-580.8 1.1992-13.199 2.3984-22.801 2.3984-25.199 0-44.398 61.199-128.4 145.2-128.4 86.398 0 146.4 64.801 146.4 108 6 219.6 1.1992 622.8 1.1992 627.6 1.207 43.199 28.809 128.4 122.41 141.6h3.6016c2.3984 0 4.8008 0 7.1992 1.1992v51.602c0 26.398 20.398 42 37.199 27.602l42-36 45.602-39.602c15.598-13.199 15.598-43.199 0-56.402z"/>
</svg>
