<?xml version="1.0" encoding="UTF-8"?>
<svg width="1200pt" height="1200pt" version="1.1" viewBox="0 0 1200 1200" xmlns="http://www.w3.org/2000/svg">
 <path d="m1081.2 333.6c-13.199-16.801-27.602-31.199-44.398-43.199-19.199-14.398-39.602-26.398-62.398-34.801-110.4-55.199-234-84-362.4-84-202.8 0-393.6 72-538.8 204-9.6016 8.3984-10.801 24-1.1992 33.602 4.8008 4.8008 10.801 8.3984 18 8.3984 6 0 12-2.3984 15.602-6 135.59-123.6 315.59-192 506.39-192 72 0 142.8 9.6016 210 28.801-105.6 28.801-183.6 124.8-183.6 238.8 0 136.8 111.6 248.4 248.4 248.4 136.8 0 248.4-111.6 248.4-248.4 0.003907-57.602-20.395-111.6-53.996-153.6zm-194.4 354c-110.4 0-200.4-90-200.4-200.4-0.003906-110.4 89.996-199.2 200.4-199.2 24 0 46.801 4.8008 67.199 12s39.602 18 56.398 31.199c46.801 37.199 76.801 93.602 76.801 157.2 0 110.4-90 199.2-200.4 199.2z"/>
 <path d="m118.8 866.4c13.199 16.801 27.602 31.199 44.398 43.199 19.199 14.398 39.602 26.398 62.398 34.801 110.4 55.199 234 84 362.4 84 202.8 0 393.6-72 538.8-204 9.6016-8.3984 10.801-24 1.1992-33.602-4.8008-4.8008-10.801-8.3984-18-8.3984-6 0-12 2.3984-15.602 6-135.59 123.6-315.59 192-506.39 192-72 0-142.8-9.6016-210-28.801 105.6-28.801 183.6-124.8 183.6-238.8 0-136.8-111.6-248.4-248.4-248.4-136.8 0-248.4 111.6-248.4 248.4-0.003907 57.602 20.395 111.6 53.996 153.6zm194.4-354c110.4 0 200.4 90 200.4 200.4 0.003906 110.4-89.996 199.2-200.4 199.2-24 0-46.801-4.8008-67.199-12s-39.602-18-56.398-31.199c-46.801-37.199-76.801-93.602-76.801-157.2 0-110.4 90-199.2 200.4-199.2z"/>
</svg>
