<?xml version="1.0" encoding="UTF-8"?>
<svg width="1200pt" height="1200pt" version="1.1" viewBox="0 0 1200 1200" xmlns="http://www.w3.org/2000/svg">
 <path d="m1112.4 133.2c-4.7969-1.1992-122.4-26.398-236.4 100.8-27.602 31.199-49.199 60-67.199 85.199-52.801 73.199-82.801 114-200.4 114h-13.199-3.6016c-117.6 0-147.6-40.801-200.4-114-19.203-25.199-39.602-55.199-67.203-85.199-114-127.2-231.6-102-236.4-100.8-13.199 2.3984-20.398 15.602-18 28.801 2.3984 13.199 15.598 21.602 28.797 18 1.1992 0 94.801-20.398 189.6 85.199 26.398 28.801 46.801 57.602 63.602 81.602 36 49.199 66 91.199 123.6 115.2-109.2 50.398-186 160.8-186 289.2 0 175.2 142.8 318 318 318s318-142.8 318-318c0-130.8-80.398-244.8-194.4-292.8 51.602-24 81.602-64.801 115.2-111.6 18-25.199 38.398-52.801 63.602-81.602 93.602-104.4 186-86.398 189.6-85.199 13.199 2.3984 25.199-4.8008 28.801-18 5.9922-13.195-2.4062-25.195-15.609-28.797zm-234 618c0 148.8-121.2 270-270 270-148.8 0-270-121.2-270-270s121.2-270 270-270c148.8 0 270 121.2 270 270z"/>
</svg>
