<?xml version="1.0" encoding="UTF-8"?>
<svg width="1200pt" height="1200pt" version="1.1" viewBox="0 0 1200 1200" xmlns="http://www.w3.org/2000/svg">
 <path d="m1076.4 660c-19.199-32.398-50.398-55.199-88.801-64.801-39.602-9.6016-82.801-3.6016-117.6 18-76.801 46.801-72 139.2-67.199 212.4 1.1992 22.801 2.3984 44.398 2.3984 63.602h-6c-93.602-4.8008-96-109.2-96-114 0-2.3984 4.8008-260.4-1.1992-517.2-2.3945-80.398-99.598-175.2-222-175.2-85.199 0-156 56.398-193.2 117.6-10.801-22.801-26.398-43.199-46.801-61.199-36-31.199-81.602-49.199-115.2-44.398-13.199 1.1992-22.801 13.199-20.398 26.398 2.3984 13.199 13.199 22.801 26.398 20.398 18-2.3984 50.398 8.3984 78 32.398 22.801 20.398 51.602 57.602 51.602 116.4v694.8c0 13.199 10.801 24 24 24 13.199 0 24-10.801 24-24l-0.003906-692.4v-4.8008-2.3984c0-52.801 72-153.6 171.6-153.6 94.801 0 172.8 70.801 174 129.6 6 255.6 1.1992 512.4 1.1992 516 0 52.801 30 156 141.6 162h1.1992c-18 72-66 134.4-145.2 130.8-13.199 0-24 9.6016-25.199 22.801-1.1992 13.199 9.6016 24 22.801 25.199h8.3984c106.8 0 169.2-86.398 188.4-181.2 49.199-4.8008 106.8-18 145.2-38.398 45.602-25.199 82.801-72 97.199-122.4 12.004-42.008 7.2031-81.605-13.199-116.41zm-32.398 103.2c-10.801 38.398-39.602 74.398-74.398 92.398-28.801 15.602-75.602 26.398-116.4 31.199 1.1992-20.398-1.1992-42-2.3984-64.801-4.8008-70.801-8.3984-136.8 44.398-168 16.801-9.6016 36-15.602 55.199-15.602 8.3984 0 18 1.1992 26.398 3.6016 25.199 6 46.801 21.602 58.801 42 16.797 30.004 14.398 58.805 8.3984 79.203z"/>
</svg>
