<?xml version="1.0" encoding="UTF-8"?>
<svg width="1200pt" height="1200pt" version="1.1" viewBox="0 0 1200 1200" xmlns="http://www.w3.org/2000/svg">
 <path d="m1063.2 954c-12-4.8008-26.398 2.3984-30 14.398-24 69.602-72 111.6-132 115.2-54 2.3984-106.8-28.801-128.4-75.602-26.398-58.801-4.8008-129.6 62.398-200.4 162-169.2 295.2-438 224.4-602.4-27.602-63.602-96-138-272.4-138h-2.3984c-126 0-214.8 38.398-264 112.8-61.199 91.199-46.801 214.8-27.602 292.8-34.801-19.199-75.602-30-117.6-30-139.2 0-252 112.8-252 252s112.8 252 252 252c139.2 0 252-112.8 252-252 0-67.199-26.398-128.4-69.602-174-14.398-40.801-68.398-210 3.6016-315.6 40.801-60 116.4-90 224.4-91.199h2.3984c120 0 196.8 37.199 228 109.2 60 141.6-61.199 391.2-214.8 550.8-80.398 84-106.8 176.4-72 253.2 28.801 62.398 94.801 103.2 165.6 103.2h9.6016c80.398-3.6016 144-57.602 175.2-147.6 2.4023-10.797-4.7969-23.996-16.797-28.797zm-690-54c-112.8 0-204-91.199-204-204s91.199-204 204-204c55.199 0 104.4 21.602 141.6 57.602 4.8008 4.8008 8.3984 8.3984 13.199 13.199 31.199 36 50.398 82.801 50.398 133.2 0 111.6-92.398 204-205.2 204z"/>
</svg>
