<?xml version="1.0" encoding="UTF-8"?>
<svg width="1200pt" height="1200pt" version="1.1" viewBox="0 0 1200 1200" xmlns="http://www.w3.org/2000/svg">
 <path d="m997.2 1009.2c-46.801-7.1992-67.199-40.801-75.602-64.801-13.199 12-26.398 22.801-38.398 33.602 16.801 36 49.199 70.801 106.8 79.199h3.6016c12 0 21.602-8.3984 24-20.398 2.3984-13.199-7.2031-25.199-20.402-27.602z"/>
 <path d="m1072.8 357.6c-54-34.801-122.4-21.602-156-10.801 0-18-1.1992-34.801-1.1992-50.398-2.3984-72-84-153.6-193.2-153.6-72 0-132 43.199-165.6 92.398-31.199-50.398-94.801-92.398-172.8-92.398-73.199 0-133.2 45.602-166.8 97.199-9.6016-18-21.602-33.602-37.199-48-31.199-27.602-70.801-42-100.8-38.398-13.199 1.1992-22.801 13.199-20.398 26.398 2.3984 13.199 13.199 22.801 26.398 20.398 14.398-2.3984 40.801 7.1992 63.602 26.398 19.199 16.801 42 48 42 96v591.6c0 13.199 10.801 24 24 24s24-10.801 24-24v-590.4-4.8008-2.3984c0-42 63.602-127.2 146.4-127.2 85.199 0 144 63.602 145.2 106.8v6 16.801c4.8008 220.8 1.1992 591.6 1.1992 595.2 0 13.199 10.801 24 24 24 13.199 0 24-10.801 24-24 0-3.6016 3.6016-391.2-1.1992-610.8 7.1992-43.199 66-114 145.2-114 85.199 0 144 63.602 145.2 106.8 6 217.2 1.1992 614.4 1.1992 619.2 0 3.6016 0 7.1992 1.1992 10.801-49.199 42-96 72-128.4 84-12 4.8008-19.199 18-14.398 31.199 3.6016 9.6016 13.199 15.602 22.801 15.602 2.3984 0 6 0 8.3984-1.1992 32.398-12 78-39.602 127.2-78 13.199-10.801 25.199-21.602 38.398-33.602 106.8-100.8 217.2-253.2 217.2-416.4 0-82.801-24-140.4-69.598-170.4zm-156 525.6c1.1992-82.801 2.3984-308.4 0-486 15.602-6 84-28.801 129.6 1.1992 31.199 20.398 46.801 64.801 46.801 129.6 1.1953 133.2-85.203 262.8-176.4 355.2z"/>
</svg>
