<?xml version="1.0" encoding="UTF-8"?>
<svg width="1200pt" height="1200pt" version="1.1" viewBox="0 0 1200 1200" xmlns="http://www.w3.org/2000/svg">
 <path d="m88.801 799.2h309.6 1.1992 2.3984 2.3984c1.1992 0 1.1992 0 2.3984-1.1992 1.1992 0 1.1992 0 2.3984-1.1992 1.1992 0 1.1992-1.1992 2.3984-1.1992s1.1992-1.1992 2.3984-1.1992c1.1992 0 1.1992-1.1992 1.1992-1.1992 1.1992 0 1.1992-1.1992 1.1992-1.1992l1.1992-1.1992s0-1.1992 1.1992-1.1992c0-1.1992 1.1992-1.1992 1.1992-2.3984s1.1992-1.1992 1.1992-2.3984c0-1.1992 1.1992-1.1992 1.1992-2.3984 0-1.1992 0-1.1992 1.1992-2.3984v-2.3984-2.3984-1.1992-1.1992-2.3984-2.3984c0-1.1992 0-1.1992-1.1992-2.3984 0-1.1992 0-1.1992-1.1992-2.3984 0-1.1992-1.1992-1.1992-1.1992-2.3984s-1.1992-1.1992-1.1992-2.3984-1.1992-1.1992-1.1992-2.3984c0-1.1992-1.1992-1.1992-1.1992-1.1992l-1.1992-1.1992c-67.199-56.398-105.6-140.4-105.6-228 0-164.4 134.4-298.8 298.8-298.8 164.4 0 298.8 134.4 298.8 298.8 0 87.602-38.398 170.4-105.6 228l-2.3984 2.3984s-1.1992 1.1992-1.1992 2.3984-1.1992 1.1992-1.1992 2.3984-1.1992 1.1992-1.1992 2.3984c0 1.1992 0 1.1992-1.1992 2.3984 0 1.1992 0 1.1992-1.1992 2.3984v2.3984 2.3984 1.1992 1.1992 2.3984 2.3984c0 1.1992 0 1.1992 1.1992 2.3984 0 1.1992 0 1.1992 1.1992 2.3984 0 1.1992 1.1992 1.1992 1.1992 2.3984s1.1992 1.1992 1.1992 2.3984c0 0 0 1.1992 1.1992 1.1992l1.1992 1.1992c1.1992 1.1992 1.1992 1.1992 2.3984 2.3984l1.1992 1.1992c1.1992 1.1992 1.1992 1.1992 2.3984 1.1992l1.1992 1.1992c1.1992 0 2.3984 1.1992 3.6016 1.1992h1.1992 4.8008 297.6c13.199 0 24-10.801 24-24s-10.801-24-24-24h-240c51.602-62.398 80.398-140.4 80.398-222 0-190.8-156-346.8-346.8-346.8s-346.8 156-346.8 346.8c0 81.602 28.801 160.8 80.398 222h-252c-13.199 0-24 10.801-24 24 0.015625 13.199 9.6172 24 22.816 24z"/>
 <path d="m1111.2 969.6h-1022.4c-13.199 0-24 10.801-24 24 0 13.199 10.801 24 24 24h1023.6c13.199 0 24-10.801 24-24-0.003906-13.203-12.004-24-25.203-24z"/>
</svg>
