<?xml version="1.0" encoding="UTF-8"?>
<svg width="1200pt" height="1200pt" version="1.1" viewBox="0 0 1200 1200" xmlns="http://www.w3.org/2000/svg">
 <path d="m100.8 579.6 154.8-154.8 154.8 154.8c4.8008 4.8008 10.801 7.1992 16.801 7.1992s12-2.3984 16.801-7.1992l156-154.8 154.8 154.8c4.8008 4.8008 10.801 7.1992 16.801 7.1992s12-2.3984 16.801-7.1992l154.8-154.8 154.8 154.8c4.8008 4.8008 10.801 7.1992 16.801 7.1992s12-2.3984 16.801-7.1992c9.6016-9.6016 9.6016-24 0-33.602l-170.41-171.6c-9.6016-9.6016-24-9.6016-33.602 0l-154.8 154.8-156-154.8c-9.6016-9.6016-24-9.6016-33.602 0l-156 154.8-154.8-154.8c-9.6016-9.6016-24-9.6016-33.602 0l-172.8 171.6c-9.6016 9.6016-9.6016 24 0 33.602 9.6016 9.5977 25.199 9.5977 34.801 0z"/>
 <path d="m961.2 620.4c-9.6016-9.6016-24-9.6016-33.602 0l-154.8 154.8-156-154.8c-9.6016-9.6016-24-9.6016-33.602 0l-156 154.8-154.8-154.8c-9.6016-9.6016-24-9.6016-33.602 0l-172.8 171.6c-9.6016 9.6016-9.6016 24 0 33.602 9.6016 9.6016 24 9.6016 33.602 0l154.8-154.8 154.8 154.8c4.8008 4.8008 10.801 7.1992 16.801 7.1992s12-2.3984 16.801-7.1992l157.2-154.8 154.8 154.8c4.8008 4.8008 10.801 7.1992 16.801 7.1992s12-2.3984 16.801-7.1992l154.8-154.8 154.8 154.8c4.8008 4.8008 10.801 7.1992 16.801 7.1992s12-2.3984 16.801-7.1992c9.6016-9.6016 9.6016-24 0-33.602z"/>
</svg>
