<?xml version="1.0" encoding="UTF-8"?>
<svg width="1200pt" height="1200pt" version="1.1" viewBox="0 0 1200 1200" xmlns="http://www.w3.org/2000/svg">
 <path d="m1092 231.6c-31.199-39.602-76.801-63.602-135.6-70.801-99.602-12-178.8 61.199-242.4 222-43.199 110.4-80.398 262.8-114 472.8-33.602-210-70.801-362.4-114-472.8-63.602-160.8-141.6-232.8-242.4-222-58.801 7.1992-104.4 31.199-135.6 70.801-55.199 69.602-44.398 163.2-44.398 166.8 1.1992 13.199 13.199 22.801 26.398 21.602 13.199-1.1992 22.801-13.199 21.602-26.398 0-1.1992-8.3984-76.801 34.801-132 22.801-30 58.801-46.801 104.4-52.801 145.2-16.805 246 232.8 325.2 811.2 1.1992 10.801 10.801 19.199 21.602 20.398h2.3984 2.3984c10.801-1.1992 19.199-9.6016 21.602-20.398 79.199-577.2 180-828 326.4-811.2 154.8 18 139.2 177.6 138 183.6-1.1992 13.199 8.3984 25.199 21.602 26.398 13.199 1.1992 25.199-8.3984 26.398-21.602 0-3.5977 10.801-96-44.398-165.6z"/>
</svg>
