<?xml version="1.0" encoding="UTF-8"?>
<svg width="1200pt" height="1200pt" version="1.1" viewBox="0 0 1200 1200" xmlns="http://www.w3.org/2000/svg">
 <path d="m1118.4 96v-1.1992c0-2.3984-1.1992-3.6016-1.1992-6-1.1992-2.4023-2.3984-4.8008-3.5977-6 0 0-1.1992-1.1992-1.1992-1.1992-1.1992-1.1992-2.3984-2.3984-4.8008-3.6016-1.1992-1.1992-3.6016-2.3984-4.8008-2.3984h-1.1992c-2.3984 0-3.6016-1.1992-6-1.1992l-549.6-0.003906c-13.199 0-24 10.801-24 24 0 13.199 10.801 24 24 24h490.8l-634.8 645.6-220.8-220.8c-9.6016-9.6016-24-9.6016-33.602 0-9.6016 9.6016-9.6016 24 0 33.602l220.8 220.8-279.6 284.4c-9.6016 9.6016-9.6016 25.199 0 33.602 4.8008 4.8008 10.801 7.1992 16.801 7.1992s12-2.3984 16.801-7.1992l279.6-284.4 222 222c4.8008 4.8008 10.801 7.1992 16.801 7.1992s12-2.3984 16.801-7.1992c9.6016-9.6016 9.6016-24 0-33.602l-222-222 634.8-645.6v535.2c0 13.199 10.801 24 24 24 13.199 0 24-10.801 24-24v-594-1.1992z"/>
</svg>
