<?xml version="1.0" encoding="UTF-8"?>
<svg width="1200pt" height="1200pt" version="1.1" viewBox="0 0 1200 1200" xmlns="http://www.w3.org/2000/svg">
 <path d="m769.2 624h142.8c13.199 0 24-10.801 24-24s-10.801-24-24-24h-142.8c6-331.2 156-460.8 157.2-462 10.801-8.3984 12-24 3.6016-33.602-8.3984-9.6016-24-12-33.602-3.6016-7.1992 6-169.2 144-175.2 499.2l-242.4 0.003906c-7.1992-337.2-166.8-492-174-498-9.6016-9.6016-25.199-8.3984-33.602 1.1992-9.6016 9.6016-8.3984 25.199 1.1992 33.602 1.2031 1.1992 151.2 148.8 158.4 463.2h-142.8c-13.199 0-24 10.801-24 24s10.801 24 24 24h142.8c-7.1992 331.2-157.2 460.8-158.4 462-10.801 8.3984-12 24-3.6016 33.602 4.8008 6 12 8.3984 18 8.3984 4.8008 0 10.801-2.3984 15.602-6 7.1992-6 169.2-144 175.2-499.2h241.2c7.1992 337.2 168 492 174 498 4.8008 4.8008 10.801 6 16.801 6s13.199-2.3984 18-7.1992c9.6016-9.6016 8.3984-25.199-1.1992-33.602-0.003906 0-150-147.6-157.2-462z"/>
</svg>
